<svg xmlns="http://www.w3.org/2000/svg" viewBox="0 0 16 16" xmlns:xlink="http://www.w3.org/1999/xlink">
 <g transform="translate(-141.99984 -397.99107)">
  <path id="0" d="M 145.1875,400 C 144.5248,400 144,400.54899 144,401.21875 l 0,9.5625 c 0,0.66976 0.5248,1.21875 1.1875,1.21875 l 9.625,0 c 0.6627,0 1.1875,-0.54899 1.1875,-1.21875 l 0,-9.5625 C 156,400.54899 155.4752,400 154.8125,400 L 145.1875,400 z m 3.8125,3 2,0 0,2 2,0 0,2 -2,0 0,2 -2,0 0,-2 -2,0 0,-2 2,0 L 149,403 Z" transform="translate(0 1)" opacity="0.8" color="#bebebe"/>
  <use width="16" height="16" xlink:href="#0" id="1" transform="translate(1 -1)"/>
  <use width="16" height="16" xlink:href="#1" transform="translate(-2)"/>
  <path d="M 145.1875,400 C 144.5248,400 144,400.54899 144,401.21875 l 0,9.5625 c 0,0.66976 0.5248,1.21875 1.1875,1.21875 l 9.625,0 c 0.6627,0 1.1875,-0.54899 1.1875,-1.21875 l 0,-9.5625 C 156,400.54899 155.4752,400 154.8125,400 L 145.1875,400 z m 3.8125,3 2,0 0,2 2,0 0,2 -2,0 0,2 -2,0 0,-2 -2,0 0,-2 2,0 L 149,403 Z" fill="#fff" color="#bebebe"/>
 </g>
</svg>
