<svg xmlns="http://www.w3.org/2000/svg" viewBox="0 0 16 16" xmlns:xlink="http://www.w3.org/1999/xlink">
<g transform="translate(-141.99984 -397.99107)">
<path style="opacity:.8;color:#bebebe" xlink:href="#rect11749-5-0-1-8" id="path13004" d="M 145.1875,400 C 144.5248,400 144,400.54899 144,401.21875 l 0,9.5625 c 0,0.66976 0.5248,1.21875 1.1875,1.21875 l 9.625,0 c 0.6627,0 1.1875,-0.54899 1.1875,-1.21875 l 0,-9.5625 C 156,400.54899 155.4752,400 154.8125,400 L 145.1875,400 z m 3.8125,3 2,0 0,2 2,0 0,2 -2,0 0,2 -2,0 0,-2 -2,0 0,-2 2,0 L 149,403 Z" transform="translate(0 1)"/>
<use width="16" height="16" xlink:href="#path13004" id="use11960" transform="translate(1 -1)"/>
<use width="16" height="16" xlink:href="#use11960" transform="translate(-2)"/>
<path style="fill:#fff;color:#bebebe" id="rect11749-5-0-1-8" d="M 145.1875,400 C 144.5248,400 144,400.54899 144,401.21875 l 0,9.5625 c 0,0.66976 0.5248,1.21875 1.1875,1.21875 l 9.625,0 c 0.6627,0 1.1875,-0.54899 1.1875,-1.21875 l 0,-9.5625 C 156,400.54899 155.4752,400 154.8125,400 L 145.1875,400 z m 3.8125,3 2,0 0,2 2,0 0,2 -2,0 0,2 -2,0 0,-2 -2,0 0,-2 2,0 L 149,403 Z"/>
<rect width="15.982" x="142" y="398" rx="0" height="16" style="fill:none"/>
</g>
</svg>
