<?xml version="1.0" encoding="UTF-8" standalone="no"?>
<!-- Created with Inkscape (http://www.inkscape.org/) -->

<svg
   xmlns:dc="http://purl.org/dc/elements/1.1/"
   xmlns:cc="http://creativecommons.org/ns#"
   xmlns:rdf="http://www.w3.org/1999/02/22-rdf-syntax-ns#"
   xmlns:svg="http://www.w3.org/2000/svg"
   xmlns="http://www.w3.org/2000/svg"
   xmlns:sodipodi="http://sodipodi.sourceforge.net/DTD/sodipodi-0.dtd"
   xmlns:inkscape="http://www.inkscape.org/namespaces/inkscape"
   width="32"
   height="32"
   id="svg3768"
   version="1.1"
   inkscape:version="0.48.4 r9939"
   sodipodi:docname="close-window.svg">
  <defs
     id="defs3770" />
  <sodipodi:namedview
     id="base"
     pagecolor="#000000"
     bordercolor="#666666"
     borderopacity="1.0"
     inkscape:pageopacity="0.50588235"
     inkscape:pageshadow="2"
     inkscape:zoom="9.6343299"
     inkscape:cx="3.4755313"
     inkscape:cy="23.293226"
     inkscape:current-layer="layer1"
     showgrid="true"
     inkscape:document-units="px"
     inkscape:grid-bbox="true"
     inkscape:window-width="1366"
     inkscape:window-height="717"
     inkscape:window-x="0"
     inkscape:window-y="26"
     inkscape:window-maximized="1">
    <inkscape:grid
       type="xygrid"
       id="grid4311"
       empspacing="5"
       visible="true"
       enabled="true"
       snapvisiblegridlinesonly="true" />
  </sodipodi:namedview>
  <metadata
     id="metadata3773">
    <rdf:RDF>
      <cc:Work
         rdf:about="">
        <dc:format>image/svg+xml</dc:format>
        <dc:type
           rdf:resource="http://purl.org/dc/dcmitype/StillImage" />
        <dc:title />
      </cc:Work>
    </rdf:RDF>
  </metadata>
  <g
     id="layer1"
     inkscape:label="Layer 1"
     inkscape:groupmode="layer"
     transform="translate(0,-32)">
    <path
       style="color:#000000;fill:#ffffff;fill-opacity:1;fill-rule:nonzero;stroke:none;stroke-width:1;stroke-miterlimit:4;stroke-opacity:1;stroke-dasharray:none;marker:none;visibility:visible;display:inline;overflow:visible;enable-background:accumulate;opacity:1"
       d="m 12.471898,42.855022 c -0.134106,0 -0.274291,0.03165 -0.377049,0.134566 l -1.104215,1.103419 c -0.20552,0.205827 -0.20552,0.547728 0,0.753555 l 3.151055,3.175698 -3.151055,3.148787 c -0.205829,0.205971 -0.205829,0.547587 0,0.753555 l 1.104215,1.103421 c 0.205826,0.205971 0.54827,0.205971 0.754095,0 L 16,49.879239 l 3.151055,3.148784 c 0.205518,0.205828 0.548581,0.205828 0.754097,0 l 1.104216,-1.103421 c 0.205519,-0.205828 0.205519,-0.547728 0,-0.753555 l -3.151054,-3.148787 3.151054,-3.175698 c 0.205829,-0.205968 0.205829,-0.547587 0,-0.753555 l -1.104216,-1.103419 c -0.102901,-0.102977 -0.269673,-0.134566 -0.40398,-0.134566 -0.134308,0 -0.247206,0.03158 -0.350117,0.134566 L 16,46.138374 12.848944,42.989588 c -0.102757,-0.102914 -0.242941,-0.134566 -0.377046,-0.134566 z"
       id="rect2987-8"
       inkscape:connector-curvature="0" />
    <path
       sodipodi:type="arc"
       style="opacity:0;fill:none;fill-opacity:1;fill-rule:nonzero;stroke:#009900;stroke-width:0;stroke-miterlimit:4;stroke-opacity:1;stroke-dasharray:none"
       id="path3776-9"
       sodipodi:cx="17.84091"
       sodipodi:cy="11.75"
       sodipodi:rx="11.704545"
       sodipodi:ry="11.75"
       d="m 29.545455,11.75 c 0,6.489346 -5.240303,11.75 -11.704545,11.75 C 11.376668,23.5 6.1363649,18.239346 6.1363649,11.75 6.1363649,5.2606542 11.376668,0 17.84091,0 24.305152,0 29.545455,5.2606542 29.545455,11.75 z"
       transform="matrix(1.2815534,0,0,1.2765957,-6.8640793,33)" />
    <path
       sodipodi:type="arc"
       style="opacity:0;fill:none;stroke:#009900;stroke-width:0;stroke-miterlimit:4;stroke-opacity:1;stroke-dasharray:none"
       id="path3776-9-2"
       sodipodi:cx="17.84091"
       sodipodi:cy="11.75"
       sodipodi:rx="11.704545"
       sodipodi:ry="11.75"
       d="m 29.545455,11.75 c 0,6.489346 -5.240303,11.75 -11.704545,11.75 C 11.376668,23.5 6.1363649,18.239346 6.1363649,11.75 6.1363649,5.2606542 11.376668,0 17.84091,0 24.305152,0 29.545455,5.2606542 29.545455,11.75 z"
       transform="matrix(1.2815534,0,0,1.2765957,-43.864079,17)" />
  </g>
</svg>
